<svg width="958" height="958" viewBox="0 0 958 958" fill="none" xmlns="http://www.w3.org/2000/svg">
<path d="M386.275 123.758C438.373 102.703 491.013 96.637 545.198 110.918C571.978 117.977 595.229 131.199 613.929 152.258C640.386 119.887 673.649 102.496 716.373 101.52C716.373 105.42 716.373 108.82 716.373 112.219C716.372 192.664 716.597 273.109 716.132 353.551C716.06 366.097 714.606 379.187 710.806 391.072C680.296 486.508 616.966 548.021 517.991 567.198C395.964 590.842 275.931 508.018 251.062 386.221C227.913 272.848 282.069 167.366 386.275 123.758ZM393.809 256.824C366.731 284.548 354.629 317.316 360.154 356.122C368.563 415.176 425.742 461.509 485.864 457.889C544.848 454.337 594.768 401.572 595.722 341.769C596.483 294.059 567.629 249.636 522.463 230.204C474.178 209.43 432.34 222.462 393.809 256.824Z" fill="#030712"/>
<path d="M275.353 818.526C263.925 758.195 301.472 698.013 358.704 678.581C444.926 649.305 530.426 617.903 616.217 587.36C636.585 580.109 656.89 572.68 677.888 565.092C687.83 593.177 687.239 620.531 675.415 647.36C661.203 679.604 637.111 702.592 604.498 714.85C496.882 755.296 388.895 794.754 279.804 835.051C278.292 829.507 276.904 824.417 275.353 818.526Z" fill="#030712"/>
<path d="M574.551 802.916C586.45 773.247 611.757 757.628 641.849 760.808C669.117 763.691 691.326 785.125 696.376 813.433C701.15 840.196 687.09 868.023 661.925 879.946C637.359 891.585 613.644 888.814 593.153 871.19C572.35 853.299 566.375 830.124 574.551 802.916Z" fill="#030712"/>
</svg>
