<svg  style="max-height:115px;background:var(--anatomy-gray-100);padding:32px;margin-bottom:16px;width:calc(100% - 64px);border-radius:4px" viewBox="0 0 402.401 115"><defs><clipPath id="anatomy_svg__a"><path fill="none" d="M0 0h5v30.5H0z"></path></clipPath></defs><path d="M188.091 64.007a.75.75 0 0 0-.532 1.281l3.213 3.207-3.213 3.217a.751.751 0 1 0 1.062 1.063l3.741-3.743a.75.75 0 0 0 0-1.06l-3.741-3.743a.75.75 0 0 0-.53-.222ZM101.091 64.007a.75.75 0 0 0-.532 1.281l3.213 3.207-3.213 3.217a.751.751 0 1 0 1.062 1.063l3.741-3.743a.75.75 0 0 0 0-1.06l-3.741-3.743a.75.75 0 0 0-.53-.222Z" fill="#6080CA"></path><path fill="none" d="M99.958 64h6v9h-6z"></path><text transform="translate(117.958 50.5)" fill="#6080CA" font-size="24" font-family="Adobe-Clean"><tspan x="0" y="24" fill="#6080CA">Trend</tspan></text><text transform="translate(.958 50.5)" fill="#6080CA" font-size="24" font-family="Adobe-Clean"><tspan x="0" y="24" fill="#6080CA">Sub Item</tspan></text><text transform="translate(204.958 50.5)" fill="#8BA3D8" font-size="24" font-family="Adobe-Clean" style="font-weight:500"><tspan x="0" y="24" fill="#8BA3D8">January 2019 Assets</tspan></text><g transform="translate(41.458 17.5)" clip-path="url(#anatomy_svg__a)"><circle cx="2.5" cy="2.5" r="2.5" transform="translate(0 25.5)" fill="#3A589B"></circle><path fill="none" stroke="#3A589B" d="M2.5 28V0"></path></g><g transform="translate(-163.542 -344)"><circle cx="2.5" cy="2.5" r="2.5" transform="translate(351 401)" fill="#3A589B"></circle><path fill="none" stroke="#3A589B" d="M353.5 403.5v-42"></path></g><g transform="translate(305.458 17.5)" clip-path="url(#anatomy_svg__a)"><circle cx="2.5" cy="2.5" r="2.5" transform="translate(0 25.5)" fill="#3A589B"></circle><path fill="none" stroke="#3A589B" d="M2.5 28V0"></path></g><text transform="translate(44.458 13)" fill="#8BA3D8" font-size="13" font-family="Adobe-Clean" style="font-style:italic"><tspan x="-43.882" y="0" fill="#8BA3D8">Breadcrumb item</tspan></text><text transform="translate(190.458 13)" fill="#8BA3D8" font-size="13" font-family="Adobe-Clean" style="font-style:italic"><tspan x="-24.694" y="0" fill="#8BA3D8">Separator</tspan></text><text transform="translate(308.458 13)" fill="#8BA3D8" font-size="13" font-family="Adobe-Clean" style="font-style:italic"><tspan x="-32.669" y="0" fill="#8BA3D8">Current page</tspan></text><text transform="translate(193.458 111)" fill="#8BA3D8" font-size="13" font-family="Adobe-Clean" style="font-style:italic"><tspan x="-27.917" y="0" fill="#8BA3D8">Navigation</tspan></text><path d="M.5 84.859v8.53h401.4v-8.53" fill="none" stroke="#3A589B"></path></svg>